# Alias OBJ Model File
# Exported from SketchUp, (c) 2000-2012 Trimble Navigation Limited
# File units = inches

mtllib diamond.mtl

g Mesh1 Model

usemtl FrontColor
v 294.5 270.406 468.357
vt -294.5 540.813
vn 0 0.866025 -0.5
v 294.5 0 -0
vt -294.5 0
v 0 0 -0
vt 0 0
v 0 270.406 468.357
vt 0 540.813
f 1/1/1 2/2/1 3/3/1 4/4/1 

vt 294.5 0
vn 0 0.866025 0.5
v 294.5 271.188 -469.711
vt 294.5 542.375
v 0 271.188 -469.711
vt 0 542.375
f 2/5/2 5/6/2 6/7/2 3/3/2 

vt 294.5 271.188
vn 0 0 1
v 294.5 817.594 -469.711
vt 294.5 817.594
v 0 817.594 -469.711
vt 0 817.594
vt 0 271.188
f 5/8/3 7/9/3 8/10/3 6/11/3 

v 0 1087.72 0.487139
vt 0 542.259
vn 0 -0.867096 0.49814
vt 0 -0.0078987
vt 294.5 -0.0078987
v 294.5 1087.72 0.487139
vt 294.5 542.259
f 9/12/4 8/13/4 7/14/4 10/15/4 

vt -294.5 543.437
vn 0 -0.866025 -0.5
v 294.5 817.594 468.357
vt -294.5 3.1875
v 0 817.594 468.357
vt 0 3.1875
vt 0 543.437
f 10/16/5 11/17/5 12/18/5 9/19/5 

vt -294.5 817.594
vn 0 0 -1
vt -294.5 270.406
vt 0 270.406
f 11/20/6 1/21/6 4/22/6 12/10/6 

